<svg width="32" height="32" viewBox="0 0 32 32" fill="none" xmlns="http://www.w3.org/2000/svg">
<rect width="32" height="32" rx="4" fill="#4696FF"/>
<path d="M16.5 11H20C22.2 11 23.4 12.4 23.4 14.4C23.4 16.4 22.175 17.8625 20 17.8625H17.8375V21.7625H16.5V11ZM19.8375 16.625C21.325 16.625 22.025 15.8375 22.025 14.4C22.025 12.9625 21.2875 12.2125 19.8375 12.2125H17.8375V16.625H19.8375Z" fill="white"/>
<path d="M8.0125 11H9.5625L11.4875 16.725H11.55L13.625 11H15.15V21.7625H13.9V13.8875H13.8375L11.575 19.9125H11.425L9.3125 13.8375H9.25V21.75H8V11H8.0125Z" fill="white"/>
</svg>
